<?xml version="1.0" encoding="UTF-8"?>
<!DOCTYPE svg PUBLIC "-//W3C//DTD SVG 1.1//EN" "http://www.w3.org/Graphics/SVG/1.1/DTD/svg11.dtd">
<svg xmlns="http://www.w3.org/2000/svg" version="1.1" width="470px" height="459px" style="shape-rendering:geometricPrecision; text-rendering:geometricPrecision; image-rendering:optimizeQuality; fill-rule:evenodd; clip-rule:evenodd" xmlns:xlink="http://www.w3.org/1999/xlink">
<g><path style="opacity:0.97" fill="#fbf2e9" d="M 262.5,71.5 C 261.737,72.2679 260.737,72.7679 259.5,73C 260.774,73.9772 260.774,74.8106 259.5,75.5C 257.202,73.0002 254.535,72.3335 251.5,73.5C 249.965,72.6457 248.632,72.6457 247.5,73.5C 246.833,73.5 246.167,73.5 245.5,73.5C 244.508,73.6716 243.842,73.3382 243.5,72.5C 249.647,70.3243 255.98,69.991 262.5,71.5 Z"/></g>
<g><path style="opacity:0.939" fill="#fcf4ed" d="M 251.5,73.5 C 246.927,78.6463 243.927,84.6463 242.5,91.5C 243.602,92.1757 244.602,92.8423 245.5,93.5C 243.708,93.634 242.042,93.3007 240.5,92.5C 241.063,85.4755 243.396,79.1421 247.5,73.5C 248.632,72.6457 249.965,72.6457 251.5,73.5 Z"/></g>
<g><path style="opacity:0.918" fill="#fcf5ee" d="M 262.5,71.5 C 281.307,77.0909 290.307,89.7576 289.5,109.5C 289.167,109.5 288.833,109.5 288.5,109.5C 288.672,108.508 288.338,107.842 287.5,107.5C 287.569,101.11 286.069,95.1103 283,89.5C 279.411,91.5297 275.578,92.863 271.5,93.5C 271.158,92.6618 270.492,92.3284 269.5,92.5C 273.584,91.2436 277.584,89.5769 281.5,87.5C 276.809,79.9602 270.142,75.4602 261.5,74C 265.369,79.5735 267.702,85.7402 268.5,92.5C 266.958,93.3007 265.292,93.634 263.5,93.5C 264.263,92.7321 265.263,92.2321 266.5,92C 265.035,86.0973 262.702,80.5973 259.5,75.5C 260.774,74.8106 260.774,73.9772 259.5,73C 260.737,72.7679 261.737,72.2679 262.5,71.5 Z M 269.5,92.5 C 269.167,92.5 268.833,92.5 268.5,92.5C 267.702,85.7402 265.369,79.5735 261.5,74C 270.142,75.4602 276.809,79.9602 281.5,87.5C 277.584,89.5769 273.584,91.2436 269.5,92.5 Z"/></g>
<g><path style="opacity:0.96" fill="#fcf4ec" d="M 243.5,72.5 C 243.842,73.3382 244.508,73.6716 245.5,73.5C 241.2,74.9317 237.2,77.0983 233.5,80C 230.93,82.0673 228.93,84.5673 227.5,87.5C 231.521,90.0116 235.854,91.6783 240.5,92.5C 242.042,93.3007 243.708,93.634 245.5,93.5C 246.167,93.5 246.833,93.5 247.5,93.5C 245.735,94.4614 243.735,94.7947 241.5,94.5C 241.5,95.5 241.5,96.5 241.5,97.5C 241.5,102.5 241.5,107.5 241.5,112.5C 240.833,114.167 240.167,115.833 239.5,117.5C 239.831,109.804 239.497,102.138 238.5,94.5C 234.049,93.5169 229.882,91.8502 226,89.5C 222.931,95.1103 221.431,101.11 221.5,107.5C 220.549,108.919 220.216,110.585 220.5,112.5C 219.508,112.672 218.842,112.338 218.5,111.5C 217.751,97.6038 222.751,86.1038 233.5,77C 236.48,74.676 239.813,73.176 243.5,72.5 Z"/></g>
<g><path style="opacity:0.971" fill="#fbefe3" d="M 268.5,92.5 C 268.833,92.5 269.167,92.5 269.5,92.5C 270.492,92.3284 271.158,92.6618 271.5,93.5C 270.5,93.5 269.5,93.5 268.5,93.5C 268.795,95.7354 268.461,97.7354 267.5,99.5C 267.5,98.8333 267.5,98.1667 267.5,97.5C 267.5,96.5 267.5,95.5 267.5,94.5C 265.265,94.7947 263.265,94.4614 261.5,93.5C 262.167,93.5 262.833,93.5 263.5,93.5C 265.292,93.634 266.958,93.3007 268.5,92.5 Z"/></g>
<g><path style="opacity:0.764" fill="#fcf5ee" d="M 247.5,93.5 C 252.167,93.5 256.833,93.5 261.5,93.5C 263.265,94.4614 265.265,94.7947 267.5,94.5C 267.5,95.5 267.5,96.5 267.5,97.5C 263.42,96.2322 259.086,95.5655 254.5,95.5C 249.914,95.5655 245.58,96.2322 241.5,97.5C 241.5,96.5 241.5,95.5 241.5,94.5C 243.735,94.7947 245.735,94.4614 247.5,93.5 Z"/></g>
<g><path style="opacity:0.162" fill="#fefdfb" d="M 156.5,109.5 C 149.167,108.167 141.833,108.167 134.5,109.5C 137.865,107.961 141.531,107.294 145.5,107.5C 149.469,107.294 153.135,107.961 156.5,109.5 Z"/></g>
<g><path style="opacity:0.152" fill="#fefefb" d="M 212.5,109.5 C 205.5,108.167 198.5,108.167 191.5,109.5C 191.918,108.778 192.584,108.278 193.5,108C 199.167,107.333 204.833,107.333 210.5,108C 211.416,108.278 212.082,108.778 212.5,109.5 Z"/></g>
<g><path style="opacity:0.122" fill="#fefdfb" d="M 287.5,107.5 C 287.5,107.833 287.5,108.167 287.5,108.5C 284.763,108.401 282.096,108.735 279.5,109.5C 279.611,108.883 279.944,108.383 280.5,108C 282.81,107.503 285.143,107.337 287.5,107.5 Z"/></g>
<g><path style="opacity:0.987" fill="#fbf0e4" d="M 287.5,107.5 C 288.338,107.842 288.672,108.508 288.5,109.5C 288.68,113.286 287.68,116.619 285.5,119.5C 286.326,115.864 286.992,112.197 287.5,108.5C 287.5,108.167 287.5,107.833 287.5,107.5 Z"/></g>
<g><path style="opacity:0.127" fill="#fefdfb" d="M 340.5,108.5 C 337.763,108.401 335.096,108.735 332.5,109.5C 333.492,107.974 334.992,107.307 337,107.5C 338.385,107.514 339.551,107.848 340.5,108.5 Z"/></g>
<g><path style="opacity:0.993" fill="#fcfaee" d="M 156.5,109.5 C 159.241,109.707 161.574,110.707 163.5,112.5C 163.973,113.906 164.973,114.573 166.5,114.5C 168.118,116.785 170.118,118.785 172.5,120.5C 176.656,117.189 180.99,114.023 185.5,111C 187.345,109.872 189.345,109.372 191.5,109.5C 198.5,108.167 205.5,108.167 212.5,109.5C 214.898,109.259 216.898,109.926 218.5,111.5C 218.842,112.338 219.508,112.672 220.5,112.5C 222.73,122.385 228.063,130.052 236.5,135.5C 236.989,136.995 237.655,138.329 238.5,139.5C 239.665,187.665 239.832,235.998 239,284.5C 233.029,293.419 226.696,293.752 220,285.5C 219.51,284.207 219.343,282.873 219.5,281.5C 219.667,235.832 219.5,190.165 219,144.5C 218.802,142.618 218.302,140.952 217.5,139.5C 212.273,127.211 203.607,124.045 191.5,130C 188.837,132.843 186.837,136.009 185.5,139.5C 184.698,140.952 184.198,142.618 184,144.5C 183.5,190.165 183.333,235.832 183.5,281.5C 183.236,287.764 179.903,291.097 173.5,291.5C 169.14,290.741 165.973,288.408 164,284.5C 163.804,236.485 163.304,188.485 162.5,140.5C 162.598,138.447 161.931,136.78 160.5,135.5C 159.662,135.158 159.328,134.492 159.5,133.5C 159.573,131.973 158.906,130.973 157.5,130.5C 150.985,126.572 144.319,126.072 137.5,129C 135.144,130.914 133.144,133.081 131.5,135.5C 130.069,136.78 129.402,138.447 129.5,140.5C 128.696,188.485 128.196,236.485 128,284.5C 124.467,290.711 119.633,292.377 113.5,289.5C 113.027,288.094 112.027,287.427 110.5,287.5C 109.073,285.852 108.24,283.852 108,281.5C 107.333,237.167 107.333,192.833 108,148.5C 108.056,142.149 109.223,136.149 111.5,130.5C 112.674,129.486 113.34,128.153 113.5,126.5C 116.258,119.241 121.258,114.074 128.5,111C 130.436,110.187 132.436,109.687 134.5,109.5C 141.833,108.167 149.167,108.167 156.5,109.5 Z"/></g>
<g><path style="opacity:0.99" fill="#fcf9ed" d="M 287.5,108.5 C 286.992,112.197 286.326,115.864 285.5,119.5C 283.886,121.075 281.886,121.741 279.5,121.5C 278.087,120.065 276.42,119.065 274.5,118.5C 275.301,116.958 275.634,115.292 275.5,113.5C 276.906,113.027 277.573,112.027 277.5,110.5C 277.842,109.662 278.508,109.328 279.5,109.5C 282.096,108.735 284.763,108.401 287.5,108.5 Z"/></g>
<g><path style="opacity:0.984" fill="#fcfaee" d="M 340.5,108.5 C 341.492,108.328 342.158,108.662 342.5,109.5C 343.167,110.833 344.167,111.833 345.5,112.5C 345.963,115.33 346.629,117.997 347.5,120.5C 347.5,136.167 347.5,151.833 347.5,167.5C 346.551,171.657 345.884,175.99 345.5,180.5C 344.508,186.49 341.508,191.156 336.5,194.5C 335.668,196.725 336.668,198.058 339.5,198.5C 339.427,200.027 340.094,201.027 341.5,201.5C 342.167,201.5 342.5,201.833 342.5,202.5C 342.427,204.027 343.094,205.027 344.5,205.5C 346.585,207.684 347.585,210.351 347.5,213.5C 348.47,237.134 348.803,260.801 348.5,284.5C 344.774,291.522 339.441,293.022 332.5,289C 330.253,287.005 329.253,284.505 329.5,281.5C 329.667,262.164 329.5,242.83 329,223.5C 328.79,221.942 328.29,220.609 327.5,219.5C 325.284,213.285 321.284,208.619 315.5,205.5C 313.562,203.837 311.228,203.171 308.5,203.5C 304.167,203.5 299.833,203.5 295.5,203.5C 294.799,230.353 294.132,257.353 293.5,284.5C 290.646,290.732 285.979,292.566 279.5,290C 277.959,288.629 276.625,287.129 275.5,285.5C 274.518,235.19 274.185,184.857 274.5,134.5C 277.804,132.027 280.638,129.027 283,125.5C 284.559,123.783 285.392,121.783 285.5,119.5C 287.68,116.619 288.68,113.286 288.5,109.5C 288.833,109.5 289.167,109.5 289.5,109.5C 291.531,110.539 292.864,112.205 293.5,114.5C 294.459,137.807 294.793,161.141 294.5,184.5C 301.354,184.824 308.021,184.491 314.5,183.5C 318.053,182.049 321.386,180.049 324.5,177.5C 325.931,176.22 326.598,174.553 326.5,172.5C 326.333,154.497 326.5,136.497 327,118.5C 327.09,114.28 328.923,111.28 332.5,109.5C 335.096,108.735 337.763,108.401 340.5,108.5 Z"/></g>
<g><path style="opacity:0.159" fill="#fefdfb" d="M 342.5,109.5 C 344.5,109.5 345.5,110.5 345.5,112.5C 344.167,111.833 343.167,110.833 342.5,109.5 Z"/></g>
<g><path style="opacity:0.635" fill="#fdfcf9" d="M 277.5,110.5 C 277.573,112.027 276.906,113.027 275.5,113.5C 275.427,111.973 276.094,110.973 277.5,110.5 Z"/></g>
<g><path style="opacity:0.149" fill="#fefefb" d="M 163.5,112.5 C 165.027,112.427 166.027,113.094 166.5,114.5C 164.973,114.573 163.973,113.906 163.5,112.5 Z"/></g>
<g><path style="opacity:0.968" fill="#faefe3" d="M 241.5,112.5 C 241.5,112.833 241.5,113.167 241.5,113.5C 241.365,115.554 242.032,117.221 243.5,118.5C 243.167,118.5 242.833,118.5 242.5,118.5C 241.209,118.737 240.209,118.404 239.5,117.5C 240.167,115.833 240.833,114.167 241.5,112.5 Z"/></g>
<g><path style="opacity:0.961" fill="#fcf9f0" d="M 222.5,113.5 C 225.5,115.5 228.5,117.5 231.5,119.5C 230.167,120.5 228.833,121.5 227.5,122.5C 226.504,122.586 225.671,122.252 225,121.5C 223.659,118.978 222.826,116.311 222.5,113.5 Z"/></g>
<g><path style="opacity:0.533" fill="#fefdf9" d="M 275.5,113.5 C 275.634,115.292 275.301,116.958 274.5,118.5C 274.167,118.5 273.833,118.5 273.5,118.5C 273.796,116.597 274.463,114.93 275.5,113.5 Z"/></g>
<g><path style="opacity:0.641" fill="#fdf8f2" d="M 241.5,113.5 C 242.404,114.209 242.737,115.209 242.5,116.5C 243.833,116.5 245.167,116.5 246.5,116.5C 248.607,117.468 250.941,117.802 253.5,117.5C 250.375,118.479 247.042,118.813 243.5,118.5C 242.032,117.221 241.365,115.554 241.5,113.5 Z"/></g>
<g><path style="opacity:0.985" fill="#fcf3ea" d="M 262.5,116.5 C 260.393,117.468 258.059,117.802 255.5,117.5C 254.833,117.5 254.167,117.5 253.5,117.5C 250.941,117.802 248.607,117.468 246.5,116.5C 251.833,115.167 257.167,115.167 262.5,116.5 Z"/></g>
<g><path style="opacity:0.384" fill="#fdf9f4" d="M 267.5,113.5 C 267.635,115.554 266.968,117.221 265.5,118.5C 261.958,118.813 258.625,118.479 255.5,117.5C 258.059,117.802 260.393,117.468 262.5,116.5C 263.833,116.5 265.167,116.5 266.5,116.5C 266.263,115.209 266.596,114.209 267.5,113.5 Z"/></g>
<g><path style="opacity:0.056" fill="#fefdfd" d="M 293.5,114.5 C 294.222,114.918 294.722,115.584 295,116.5C 295.5,138.831 295.667,161.164 295.5,183.5C 301.833,183.5 308.167,183.5 314.5,183.5C 308.021,184.491 301.354,184.824 294.5,184.5C 294.793,161.141 294.459,137.807 293.5,114.5 Z"/></g>
<g><path style="opacity:0.565" fill="#fdfcf7" d="M 345.5,112.5 C 346.117,112.611 346.617,112.944 347,113.5C 347.497,115.81 347.663,118.143 347.5,120.5C 346.629,117.997 345.963,115.33 345.5,112.5 Z"/></g>
<g><path style="opacity:0.412" fill="#fdfdf9" d="M 166.5,114.5 C 169.522,115.522 171.522,117.522 172.5,120.5C 170.118,118.785 168.118,116.785 166.5,114.5 Z"/></g>
<g><path style="opacity:0.962" fill="#fbf9ee" d="M 279.5,121.5 C 279.881,122.931 280.881,123.764 282.5,124C 280.138,126.961 277.472,129.461 274.5,131.5C 274.177,127.774 274.511,124.107 275.5,120.5C 276.736,121.246 278.07,121.579 279.5,121.5 Z"/></g>
<g><path style="opacity:1" fill="#fbf1e5" d="M 285.5,119.5 C 285.392,121.783 284.559,123.783 283,125.5C 280.638,129.027 277.804,132.027 274.5,134.5C 273.833,134.5 273.167,134.5 272.5,134.5C 272.5,134.167 272.5,133.833 272.5,133.5C 272.5,132.833 272.833,132.5 273.5,132.5C 274.167,132.5 274.5,132.167 274.5,131.5C 277.472,129.461 280.138,126.961 282.5,124C 280.881,123.764 279.881,122.931 279.5,121.5C 281.886,121.741 283.886,121.075 285.5,119.5 Z"/></g>
<g><path style="opacity:0.989" fill="#fcfaef" d="M 231.5,121.5 C 231.833,122.167 232.167,122.833 232.5,123.5C 232.427,125.027 233.094,126.027 234.5,126.5C 235.773,128.713 236.773,131.046 237.5,133.5C 235.236,132.419 233.069,131.085 231,129.5C 229.878,127.376 228.378,125.543 226.5,124C 227.056,123.617 227.389,123.117 227.5,122.5C 228.959,122.567 230.292,122.234 231.5,121.5 Z"/></g>
<g><path style="opacity:0.965" fill="#fcf4ed" d="M 239.5,117.5 C 240.209,118.404 241.209,118.737 242.5,118.5C 243.672,125.838 246.672,132.171 251.5,137.5C 249.597,137.796 247.93,138.463 246.5,139.5C 244.063,139.244 241.729,138.577 239.5,137.5C 238.702,137.957 238.369,138.624 238.5,139.5C 237.655,138.329 236.989,136.995 236.5,135.5C 237.492,135.672 238.158,135.338 238.5,134.5C 241.426,135.868 244.426,136.701 247.5,137C 243.504,131.848 241.171,126.015 240.5,119.5C 237.461,120.01 234.461,120.677 231.5,121.5C 230.292,122.234 228.959,122.567 227.5,122.5C 228.833,121.5 230.167,120.5 231.5,119.5C 234.067,118.525 236.733,117.858 239.5,117.5 Z"/></g>
<g><path style="opacity:0.965" fill="#fcf4ed" d="M 271.5,93.5 C 269.582,101.228 268.915,109.228 269.5,117.5C 270.959,117.433 272.292,117.766 273.5,118.5C 273.833,118.5 274.167,118.5 274.5,118.5C 276.42,119.065 278.087,120.065 279.5,121.5C 278.07,121.579 276.736,121.246 275.5,120.5C 274.511,124.107 274.177,127.774 274.5,131.5C 274.5,132.167 274.167,132.5 273.5,132.5C 273.824,128.445 273.491,124.445 272.5,120.5C 271.264,119.754 269.93,119.421 268.5,119.5C 267.829,126.015 265.496,131.848 261.5,137C 265.283,136.455 268.95,135.288 272.5,133.5C 272.5,133.833 272.5,134.167 272.5,134.5C 272.5,134.833 272.5,135.167 272.5,135.5C 269.433,137.413 266.099,138.747 262.5,139.5C 261.07,138.463 259.403,137.796 257.5,137.5C 262.773,131.99 265.44,125.657 265.5,118.5C 266.968,117.221 267.635,115.554 267.5,113.5C 267.5,108.833 267.5,104.167 267.5,99.5C 268.461,97.7354 268.795,95.7354 268.5,93.5C 269.5,93.5 270.5,93.5 271.5,93.5 Z"/></g>
<g><path style="opacity:0.106" fill="#fefefb" d="M 232.5,123.5 C 233.906,123.973 234.573,124.973 234.5,126.5C 233.094,126.027 232.427,125.027 232.5,123.5 Z"/></g>
<g><path style="opacity:0.518" fill="#fdfdf9" d="M 113.5,126.5 C 113.34,128.153 112.674,129.486 111.5,130.5C 111.229,128.62 111.896,127.287 113.5,126.5 Z"/></g>
<g><path style="opacity:1" fill="#fbf1e6" d="M 221.5,107.5 C 221.833,109.5 222.167,111.5 222.5,113.5C 222.826,116.311 223.659,118.978 225,121.5C 225.671,122.252 226.504,122.586 227.5,122.5C 227.389,123.117 227.056,123.617 226.5,124C 228.378,125.543 229.878,127.376 231,129.5C 233.069,131.085 235.236,132.419 237.5,133.5C 238.167,133.5 238.5,133.833 238.5,134.5C 238.158,135.338 237.492,135.672 236.5,135.5C 228.063,130.052 222.73,122.385 220.5,112.5C 220.216,110.585 220.549,108.919 221.5,107.5 Z"/></g>
<g><path style="opacity:0.071" fill="#fefdfa" d="M 157.5,130.5 C 158.906,130.973 159.573,131.973 159.5,133.5C 158.094,133.027 157.427,132.027 157.5,130.5 Z"/></g>
<g><path style="opacity:0.132" fill="#fefefc" d="M 272.5,135.5 C 272.5,135.167 272.5,134.833 272.5,134.5C 273.167,134.5 273.833,134.5 274.5,134.5C 274.185,184.857 274.518,235.19 275.5,285.5C 274.732,284.737 274.232,283.737 274,282.5C 273.833,233.332 273.333,184.332 272.5,135.5 Z"/></g>
<g><path style="opacity:0.953" fill="#fbf0e5" d="M 251.5,137.5 C 252.167,137.833 252.833,138.167 253.5,138.5C 251.735,139.461 249.735,139.795 247.5,139.5C 247.167,139.5 246.833,139.5 246.5,139.5C 247.93,138.463 249.597,137.796 251.5,137.5 Z"/></g>
<g><path style="opacity:0.965" fill="#fbf0e5" d="M 257.5,137.5 C 259.403,137.796 261.07,138.463 262.5,139.5C 262.167,139.5 261.833,139.5 261.5,139.5C 259.265,139.795 257.265,139.461 255.5,138.5C 256.167,138.167 256.833,137.833 257.5,137.5 Z"/></g>
<g><path style="opacity:0.155" fill="#fefdfb" d="M 131.5,135.5 C 131.598,137.553 130.931,139.22 129.5,140.5C 129.402,138.447 130.069,136.78 131.5,135.5 Z"/></g>
<g><path style="opacity:0.159" fill="#fefdfa" d="M 160.5,135.5 C 161.931,136.78 162.598,138.447 162.5,140.5C 161.069,139.22 160.402,137.553 160.5,135.5 Z"/></g>
<g><path style="opacity:0.651" fill="#fcf6f0" d="M 253.5,138.5 C 254.167,138.5 254.833,138.5 255.5,138.5C 257.265,139.461 259.265,139.795 261.5,139.5C 256.833,140.833 252.167,140.833 247.5,139.5C 249.735,139.795 251.735,139.461 253.5,138.5 Z"/></g>
<g><path style="opacity:0.052" fill="#fefefd" d="M 185.5,139.5 C 184.863,186.986 184.196,234.32 183.5,281.5C 183.333,235.832 183.5,190.165 184,144.5C 184.198,142.618 184.698,140.952 185.5,139.5 Z"/></g>
<g><path style="opacity:0.033" fill="#fefefd" d="M 217.5,139.5 C 218.302,140.952 218.802,142.618 219,144.5C 219.5,190.165 219.667,235.832 219.5,281.5C 218.804,234.32 218.137,186.986 217.5,139.5 Z"/></g>
<g><path style="opacity:0.138" fill="#fefdfa" d="M 347.5,167.5 C 347.665,170.85 347.498,174.183 347,177.5C 346.768,178.737 346.268,179.737 345.5,180.5C 345.884,175.99 346.551,171.657 347.5,167.5 Z"/></g>
<g><path style="opacity:0.084" fill="#fefdfb" d="M 326.5,172.5 C 326.598,174.553 325.931,176.22 324.5,177.5C 324.402,175.447 325.069,173.78 326.5,172.5 Z"/></g>
<g><path style="opacity:0.424" fill="#fefdfa" d="M 336.5,194.5 C 337.5,195.833 338.5,197.167 339.5,198.5C 336.668,198.058 335.668,196.725 336.5,194.5 Z"/></g>
<g><path style="opacity:0.537" fill="#fefdf9" d="M 339.5,198.5 C 340.906,198.973 341.573,199.973 341.5,201.5C 340.094,201.027 339.427,200.027 339.5,198.5 Z"/></g>
<g><path style="opacity:0.057" fill="#fefefd" d="M 295.5,203.5 C 295.667,229.502 295.5,255.502 295,281.5C 294.768,282.737 294.268,283.737 293.5,284.5C 294.132,257.353 294.799,230.353 295.5,203.5 Z"/></g>
<g><path style="opacity:0.159" fill="#fefdfa" d="M 342.5,202.5 C 343.906,202.973 344.573,203.973 344.5,205.5C 343.094,205.027 342.427,204.027 342.5,202.5 Z"/></g>
<g><path style="opacity:0.111" fill="#fefdfb" d="M 308.5,203.5 C 311.228,203.171 313.562,203.837 315.5,205.5C 312.933,205.279 310.599,204.612 308.5,203.5 Z"/></g>
<g><path style="opacity:0.334" fill="#fefdf9" d="M 347.5,213.5 C 348.222,213.918 348.722,214.584 349,215.5C 349.83,238.67 349.663,261.67 348.5,284.5C 348.803,260.801 348.47,237.134 347.5,213.5 Z"/></g>
<g><path style="opacity:0.086" fill="#fefefd" d="M 327.5,219.5 C 328.29,220.609 328.79,221.942 329,223.5C 329.5,242.83 329.667,262.164 329.5,281.5C 328.775,260.985 328.109,240.318 327.5,219.5 Z"/></g>
<g><path style="opacity:0.337" fill="#fefdf9" d="M 110.5,287.5 C 112.027,287.427 113.027,288.094 113.5,289.5C 111.973,289.573 110.973,288.906 110.5,287.5 Z"/></g>
</svg>
