<?xml version="1.0" encoding="UTF-8"?>
<!DOCTYPE svg PUBLIC "-//W3C//DTD SVG 1.1//EN" "http://www.w3.org/Graphics/SVG/1.1/DTD/svg11.dtd">
<svg xmlns="http://www.w3.org/2000/svg" version="1.1" width="1200px" height="1200px" style="shape-rendering:geometricPrecision; text-rendering:geometricPrecision; image-rendering:optimizeQuality; fill-rule:evenodd; clip-rule:evenodd" xmlns:xlink="http://www.w3.org/1999/xlink">
<g><path style="opacity:0.703" fill="#fbf0e4" d="M 634.5,463.5 C 632.238,474.019 626.904,482.685 618.5,489.5C 607.198,495.33 595.531,495.997 583.5,491.5C 581.763,489.45 579.763,487.617 577.5,486C 579.189,486.134 580.856,486.634 582.5,487.5C 585.599,489.56 588.932,490.726 592.5,491C 588.504,485.848 586.171,480.015 585.5,473.5C 582.461,474.01 579.461,474.677 576.5,475.5C 574.302,475.591 573.969,474.925 575.5,473.5C 578.461,472.677 581.461,472.01 584.5,471.5C 584.831,463.804 584.497,456.138 583.5,448.5C 579.049,447.517 574.882,445.85 571,443.5C 566.744,451.064 565.578,459.064 567.5,467.5C 568.141,470.221 568.641,472.888 569,475.5C 567.388,472.141 565.888,468.808 564.5,465.5C 562.751,447.827 569.751,434.994 585.5,427C 607.767,420.22 623.6,427.387 633,448.5C 634.25,453.42 634.75,458.42 634.5,463.5 Z M 598.5,426.5 C 601.643,427.134 604.143,428.8 606,431.5C 608.234,436.205 610.068,441.039 611.5,446C 607.587,447.052 603.587,447.552 599.5,447.5C 595.299,447.717 591.299,447.05 587.5,445.5C 588.892,437.7 592.558,431.366 598.5,426.5 Z M 590.5,427.5 C 591.239,427.369 591.906,427.536 592.5,428C 588.443,433.497 585.943,439.663 585,446.5C 580.561,445.531 576.394,443.864 572.5,441.5C 573.93,438.567 575.93,436.067 578.5,434C 582.2,431.098 586.2,428.932 590.5,427.5 Z M 606.5,428.5 C 615.083,429.336 621.749,433.67 626.5,441.5C 622.538,443.654 618.372,445.321 614,446.5C 612.821,439.826 610.321,433.826 606.5,428.5 Z M 575.5,473.5 C 573.098,471.091 570.431,469.091 567.5,467.5C 565.578,459.064 566.744,451.064 571,443.5C 574.882,445.85 579.049,447.517 583.5,448.5C 584.497,456.138 584.831,463.804 584.5,471.5C 581.461,472.01 578.461,472.677 575.5,473.5 Z M 627.5,443.5 C 631.015,448.882 632.682,454.882 632.5,461.5C 624.519,460.916 619.686,464.583 618,472.5C 616.989,471.663 615.822,471.33 614.5,471.5C 614.169,463.804 614.503,456.138 615.5,448.5C 619.763,447.198 623.763,445.531 627.5,443.5 Z M 587.5,449.5 C 595.528,449.169 603.528,449.502 611.5,450.5C 612.752,457.153 612.752,463.82 611.5,470.5C 603.5,469.167 595.5,469.167 587.5,470.5C 586.207,463.487 586.207,456.487 587.5,449.5 Z M 598.5,471.5 C 602.828,472.046 607.162,472.713 611.5,473.5C 603.373,498.796 595.373,498.796 587.5,473.5C 591.313,472.833 594.979,472.166 598.5,471.5 Z M 613.5,473.5 C 614.93,473.421 616.264,473.754 617.5,474.5C 618.66,478.459 618.827,482.459 618,486.5C 614.461,489.03 610.627,490.53 606.5,491C 610.496,485.848 612.829,480.015 613.5,473.5 Z"/></g>
<g><path style="opacity:0.966" fill="#fbf9ed" d="M 564.5,465.5 C 565.888,468.808 567.388,472.141 569,475.5C 568.641,472.888 568.141,470.221 567.5,467.5C 570.431,469.091 573.098,471.091 575.5,473.5C 573.969,474.925 574.302,475.591 576.5,475.5C 579.061,479.161 581.061,483.161 582.5,487.5C 580.856,486.634 579.189,486.134 577.5,486C 579.763,487.617 581.763,489.45 583.5,491.5C 584.157,516.292 584.491,541.125 584.5,566C 584.658,590.919 584.158,615.752 583,640.5C 578.256,646.189 572.923,646.856 567,642.5C 565.249,640.51 564.249,638.177 564,635.5C 563.667,590.167 563.333,544.833 563,499.5C 562.085,484.898 554.585,479.065 540.5,482C 533.582,485.652 530.082,491.486 530,499.5C 529.667,544.833 529.333,590.167 529,635.5C 527.873,642.648 523.707,645.815 516.5,645C 513.898,644.117 511.731,642.617 510,640.5C 508.676,593.917 508.01,547.25 508,500.5C 506.912,485.249 499.079,479.082 484.5,482C 477.841,486.251 474.341,492.417 474,500.5C 473.667,546.5 473.333,592.5 473,638.5C 468.115,646.39 462.115,647.39 455,641.5C 454.027,639.608 453.36,637.608 453,635.5C 452.333,591.167 452.333,546.833 453,502.5C 454.059,473.106 469.226,459.606 498.5,462C 506.652,463.903 513.319,468.07 518.5,474.5C 531.689,460.72 547.022,457.72 564.5,465.5 Z"/></g>
<g><path style="opacity:0.964" fill="#fcf9ee" d="M 618.5,489.5 C 626.904,482.685 632.238,474.019 634.5,463.5C 637.176,465.026 639.009,467.36 640,470.5C 640.5,492.831 640.667,515.164 640.5,537.5C 648.238,537.856 655.905,537.356 663.5,536C 667.49,534.01 669.99,530.843 671,526.5C 671.062,506.79 671.729,487.124 673,467.5C 679.254,459.577 685.587,459.577 692,467.5C 692.667,488.833 692.667,510.167 692,531.5C 690.413,538.512 686.913,544.345 681.5,549C 687.831,554.492 691.998,561.325 694,569.5C 694.667,592.5 694.667,615.5 694,638.5C 689.952,645.446 684.452,646.946 677.5,643C 675.396,640.958 674.229,638.458 674,635.5C 673.929,614.463 673.263,593.463 672,572.5C 668.742,563.904 662.575,559.071 653.5,558C 649.179,557.501 644.846,557.334 640.5,557.5C 640.667,583.502 640.5,609.502 640,635.5C 637.824,643.992 632.658,646.825 624.5,644C 621.865,642.039 620.031,639.539 619,636.5C 618.5,587.501 618.333,538.501 618.5,489.5 Z"/></g>
</svg>
